PathFileType	4	(X/Y/Z)	E:\Marcel_BSc\Ayumi_22_01_2025\22-01-2025\sumo_dl_0.trc
DataRate	CameraRate	NumFrames	NumMarkers	Units	OrigDataRate	OrigDataStartFrame	OrigNumFrames
200.0	200.0	8	48	mm	200.0	323	2582	
Frame#	Time	RUFIN			FHD			LBHD			RBHD			RBAR			LBAR			RSACR			LSACR			LASI			USACR			LTHI2			C7			CLAV			T10			RSHO			LSHO			LTHI1			LTHI3			LTIB1			LTIB2			LTIB3			LMMAL			LLMAL			LHEE			LMT1			LMT5			LMT3			RTHI1			RTHI2			RTHI3			RTIB1			RTIB3			RTIB2			RLMAL			RMMAL			RHEE			RMT5			RMT1			RMT3			LDUPA			LMUPA			LUUPA			LRAD			RRAD			RUL			RMUPA			RDUPA			RUUPA			
		X1	Y1	Z1	X2	Y2	Z2	X3	Y3	Z3	X4	Y4	Z4	X5	Y5	Z5	X6	Y6	Z6	X7	Y7	Z7	X8	Y8	Z8	X9	Y9	Z9	X10	Y10	Z10	X11	Y11	Z11	X12	Y12	Z12	X13	Y13	Z13	X14	Y14	Z14	X15	Y15	Z15	X16	Y16	Z16	X17	Y17	Z17	X18	Y18	Z18	X19	Y19	Z19	X20	Y20	Z20	X21	Y21	Z21	X22	Y22	Z22	X23	Y23	Z23	X24	Y24	Z24	X25	Y25	Z25	X26	Y26	Z26	X27	Y27	Z27	X28	Y28	Z28	X29	Y29	Z29	X30	Y30	Z30	X31	Y31	Z31	X32	Y32	Z32	X33	Y33	Z33	X34	Y34	Z34	X35	Y35	Z35	X36	Y36	Z36	X37	Y37	Z37	X38	Y38	Z38	X39	Y39	Z39	X40	Y40	Z40	X41	Y41	Z41	X42	Y42	Z42	X43	Y43	Z43	X44	Y44	Z44	X45	Y45	Z45	X46	Y46	Z46	X47	Y47	Z47	X48	Y48	Z48	
323	1.605	300.6496	1300.0251	-1675.188	139.92456	1527.553	-965.91785	155.8981	1511.4124	-905.41315	180.29433	1495.9241	-1035.6198	221.58847	236.53117	-2070.938	236.73183	250.36412	150.41933	373.05698	870.27203	-1008.327	372.00168	873.44366	-934.9552				367.55975	883.60486	-972.65778	290.84811	521.37189	-688.46124	330.85562	1315.4406	-957.83984	195.89912	1247.0929	-970.41626	358.84268	1039.006	-964.77875	273.19769	1324.1677	-1101.2976	259.68219	1316.281	-823.17712	322.94235	573.24609	-717.06616	333.82959	509.31531	-710.26691	321.92819	241.44635	-566.00635	362.76575	223.1344	-590.4115	336.33298	179.43715	-549.13995	275.70193	65.629799	-560.10236	332.72992	73.092949	-512.69208	340.84625	30.977936	-559.74451	186.10257	44.608917	-439.65631				206.38541	41.376499	-411.38663	327.01331	570.20825	-1210.2271	295.7803	520.32208	-1241.0239	338.91595	505.80811	-1217.26	330.45749	271.89215	-1346.1128	338.91196	207.47708	-1359.1302	366.14862	250.4003	-1316.6599	329.31329	70.675621	-1408.5991	255.97787	68.92498	-1381.0951	328.56122	28.187725	-1361.7808	251.32983	25.872437	-1537.7639	192.37799	35.970516	-1506.0219	215.17352	33.528744	-1527.3225	339.38101	1240.601	-637.54279	311.04596	1281.2489	-640.11566	321.5726	1285.6426	-701.17841	265.8696	1276.4999	-309.2789	297.51938	1298.3759	-1602.0376	355.73853	1275.7426	-1599.0516	350.48907	1281.9974	-1202.8987	356.69464	1272.7052	-1263.9717	366.99487	1236.0416	-1194.6348
324	1.61	300.54315	1300.0454	-1675.1736	139.89758	1527.6102	-965.86865	155.89311	1511.4333	-905.39899	180.28085	1495.9242	-1035.5903	221.59569	236.49974	-2070.9375	236.74019	250.37759	150.42686	373.04077	870.30115	-1008.326	371.9953	873.44507	-934.95416				367.56583	883.57544	-972.67065	290.83405	521.37726	-688.46454	330.86578	1315.4474	-957.82776	195.88062	1247.0935	-970.39978	358.83954	1039.0063	-964.7674	273.20685	1324.1489	-1101.2783	259.67078	1316.2604	-823.16022	322.64865	573.52063	-717.06317	333.88571	509.3028	-710.24597	321.94254	241.42145	-565.98999	362.76105	223.12627	-590.42072	336.41745	179.41855	-549.11389	275.69803	65.63401	-560.10815	332.75043	73.093765	-512.68164	340.85574	30.961903	-559.75873	186.1138	44.600552	-439.65546				206.39276	41.390491	-411.3797	327.00885	570.23145	-1210.2144	295.78305	520.3512	-1241.0148	338.93222	505.81146	-1217.2598	330.48849	271.88751	-1346.0957	338.91708	207.46883	-1359.1279	366.1012	250.48265	-1316.5831	329.31583	70.662315	-1408.605	255.97798	68.938889	-1381.0958	328.55322	28.182396	-1361.7716	251.34315	25.872522	-1537.7695	192.38252	35.953503	-1506.0149	215.15703	33.535221	-1527.3225	339.38293	1240.6106	-637.53613	311.06161	1281.2526	-640.10315	321.57504	1285.6252	-701.18219	265.91446	1276.5546	-309.27679	297.32669	1298.4554	-1602.0533	355.65494	1275.7859	-1599.0406	350.21869	1282.0472	-1202.9454	356.6474	1272.714	-1263.9607	366.9407	1236.006	-1194.6361
325	1.615	300.60007	1299.7343	-1675.3798	139.88547	1527.5737	-965.87628	155.88614	1511.4421	-905.37335	180.26897	1495.9224	-1035.5737	221.60934	236.5137	-2070.9258	236.74524	250.37184	150.42107	372.98456	870.44446	-1008.3642	371.99319	873.44977	-934.94861				367.54169	883.60229	-972.65576	290.84976	521.36066	-688.48163	330.86398	1315.4547	-957.82422	195.85663	1247.1296	-970.38275	358.83063	1039.0112	-964.78021	273.17169	1324.1763	-1101.2611	259.70749	1316.2836	-823.14734	322.92929	573.22296	-717.07465	333.86029	509.3071	-710.24799	321.60419	241.1993	-566.46216	362.79373	223.13966	-590.41882	336.3598	179.50179	-549.10315	275.72299	65.61808	-560.09381	332.74655	73.091972	-512.68274	340.87274	30.969744	-559.73724	186.10629	44.607449	-439.64532				206.37691	41.366795	-411.38025	327.02533	570.20483	-1210.2183	295.77731	520.3053	-1241.0344	338.89713	505.82462	-1217.2551	330.45853	271.88513	-1346.1335	338.94724	207.47839	-1359.1193	366.16333	250.40564	-1316.6455	329.32034	70.660721	-1408.604	256.00299	68.906769	-1381.0885	328.55597	28.192881	-1361.7789	251.33177	25.878893	-1537.7709	192.37283	35.958961	-1506.0233	215.15588	33.532684	-1527.3235	339.43625	1240.5782	-637.53284	311.11917	1281.2516	-640.08826	321.60342	1285.6146	-701.17438	265.98691	1276.5885	-309.26514	297.33429	1298.3998	-1602.042	355.46136	1275.6051	-1599.2875	350.18555	1282.049	-1202.9336	356.61646	1272.672	-1263.9712	366.88184	1235.9922	-1194.6353
326	1.62	300.39502	1300.0004	-1675.1818	139.90874	1527.5406	-965.87024	155.86978	1511.4515	-905.3739	180.25687	1495.9213	-1035.5583	221.61732	236.48219	-2070.9348	236.7417	250.36353	150.4182	372.95117	870.49298	-1008.3492	371.99768	873.43945	-934.94904				367.54181	883.60626	-972.63745	290.84268	521.35992	-688.46899	330.85156	1315.4594	-957.82251	195.85062	1247.1339	-970.36591	358.82382	1038.998	-964.77582	273.16177	1324.1676	-1101.2646	259.72629	1316.3075	-823.13782	322.67175	573.5329	-717.04742	333.86154	509.29724	-710.22028	321.65933	241.25484	-566.3963	362.76669	223.14886	-590.43378	336.42603	179.47252	-549.08606	275.70517	65.620865	-560.10675	332.74863	73.097824	-512.67889	340.86169	30.957888	-559.75092	186.09834	44.639858	-439.63229				206.38087	41.385269	-411.37521	327.00244	570.24048	-1210.217	295.75085	520.30383	-1241.0364	338.89163	505.82611	-1217.2479	330.4567	271.89853	-1346.1252	338.91263	207.47153	-1359.1182	366.18985	250.37872	-1316.6482	329.31409	70.674103	-1408.6006	255.99229	68.933823	-1381.099	328.55484	28.187508	-1361.7809	251.35371	25.875441	-1537.7723	192.35942	35.940674	-1506.0226	215.17235	33.544014	-1527.3226	339.47958	1240.5505	-637.53571	311.00836	1281.2816	-640.05579	321.62573	1285.5992	-701.17194	266.04666	1276.5908	-309.27051	297.28024	1298.3783	-1602.0448	355.49576	1275.7745	-1599.0487	350.31192	1281.9995	-1202.8922	356.56924	1272.6519	-1263.9728	366.83414	1235.9717	-1194.6265
327	1.625	300.29767	1300.0022	-1675.1776	139.89938	1527.5693	-965.85315	155.88977	1511.4347	-905.33636	180.23634	1495.9282	-1035.5491	221.59973	236.51689	-2070.9377	236.74924	250.37289	150.42142	372.94247	870.50757	-1008.3368	371.98743	873.45123	-934.94891				367.52991	883.63116	-972.63898	290.83374	521.37671	-688.46875	330.84732	1315.4502	-957.81708	195.83673	1247.161	-970.34961	358.83099	1039.0183	-964.7605	273.17136	1324.1355	-1101.2642	259.7269	1316.3091	-823.1308	322.97729	573.25146	-717.05756	333.83139	509.31924	-710.25122	321.95007	241.429	-566.0083	362.80249	223.15396	-590.41315	336.45248	179.45195	-549.06537	275.71851	65.615997	-560.09705	332.76157	73.084991	-512.67383	340.87189	30.977337	-559.73334	186.09433	44.61525	-439.65134				206.40355	41.388962	-411.39053	326.99905	570.21814	-1210.2355	295.7392	520.31519	-1241.0421	338.89175	505.8428	-1217.2341	330.48932	271.86166	-1346.1295	338.92432	207.47668	-1359.1248	366.11389	250.46307	-1316.5985	329.31955	70.666222	-1408.6019	255.97113	68.93692	-1381.1011	328.55194	28.183374	-1361.7867	251.35249	25.868206	-1537.7729	192.38132	35.960121	-1506.0253	215.18155	33.544933	-1527.3157	339.48242	1240.5596	-637.54156	311.0217	1281.2845	-640.05743	321.6593	1285.5807	-701.16711	266.11868	1276.6038	-309.23413	297.1492	1298.4906	-1602.0676	355.42935	1275.7662	-1599.077	350.28067	1281.9896	-1202.8994	356.52634	1272.6747	-1263.9659	366.77954	1235.936	-1194.6298
328	1.63	300.20279	1300.0037	-1675.1808	139.87534	1527.5898	-965.8114	155.87325	1511.467	-905.3299	180.23724	1495.9283	-1035.5295	221.59908	236.4969	-2070.9409	236.74321	250.37077	150.42354	373.026	870.33142	-1008.3047	371.98383	873.45355	-934.94348				367.55731	883.60297	-972.64832	290.82489	521.36432	-688.46515	330.8266	1315.4567	-957.82111	195.81827	1247.1665	-970.33997	358.79974	1039.047	-964.76385	273.15836	1324.1167	-1101.2767	259.69376	1316.3119	-823.11633	322.9595	573.26379	-717.05511	333.8728	509.27466	-710.21832	321.96634	241.46078	-566.00061	362.77557	223.13	-590.43079	336.4025	179.45274	-549.10724	275.724	65.619308	-560.09906	332.77194	73.076057	-512.66687	340.85117	30.979523	-559.74457	186.10693	44.611679	-439.65094				206.36278	41.391125	-411.3606	326.99069	570.2442	-1210.2273	295.75919	520.30743	-1241.0162	338.87656	505.83481	-1217.2415	330.46896	271.87878	-1346.1206	338.92377	207.48351	-1359.1017	366.09644	250.50067	-1316.578	329.3237	70.664406	-1408.6104	255.98148	68.903503	-1381.0781	328.55615	28.192671	-1361.7749	251.36063	25.865358	-1537.7747	192.37361	35.961384	-1506.0239	215.15901	33.52961	-1527.3197	339.50009	1240.5491	-637.539	311.20297	1281.2278	-640.09277	321.66183	1285.575	-701.17896	266.16376	1276.6398	-309.25467	297.073	1298.5046	-1602.0713	355.35181	1275.7913	-1599.0574	350.24838	1281.976	-1202.8981	356.47949	1272.6661	-1263.9701	366.73883	1235.9207	-1194.6454
329	1.635	300.12628	1299.9932	-1675.1879	139.86293	1527.6025	-965.7937	155.87517	1511.4489	-905.31683	180.22537	1495.9341	-1035.5182	221.59163	236.50475	-2070.9426	236.7471	250.37056	150.42036	373.01886	870.35284	-1008.2916	371.96808	873.46777	-934.93774				367.52158	883.64191	-972.62646	290.82294	521.35718	-688.44733	330.79941	1315.489	-957.83362	195.80518	1247.1837	-970.32361	358.81345	1039.0261	-964.758	273.1304	1324.1364	-1101.255	259.7027	1316.2853	-823.12091	322.96494	573.2276	-717.04877	333.87195	509.28729	-710.22687	321.61838	241.24402	-566.47693	362.80377	223.11568	-590.41907	336.41888	179.44803	-549.08044	275.70761	65.612274	-560.10675	332.76477	73.08313	-512.67242	340.85617	30.962492	-559.75201	186.09747	44.615246	-439.64554				206.38617	41.369625	-411.38535	326.99829	570.22595	-1210.1995	295.72946	520.31787	-1241.0339	338.8851	505.83743	-1217.2422	330.48914	271.88776	-1346.0923	338.93506	207.46544	-1359.1141	366.14667	250.45583	-1316.5878	329.31329	70.662109	-1408.6053	255.99536	68.901604	-1381.085	328.55072	28.176428	-1361.781	251.35133	25.870644	-1537.7755	192.36568	35.968586	-1506.0276	215.17896	33.537697	-1527.3226	339.51263	1240.5488	-637.54401	311.23495	1281.2164	-640.08978	321.68713	1285.5747	-701.17444	266.20966	1276.6505	-309.25525	297.02841	1298.5118	-1602.0785	355.297	1275.8068	-1599.0679	350.21762	1281.9807	-1202.9076	356.4328	1272.6467	-1263.9913	366.68292	1235.9493	-1194.6331
330	1.64	300.06537	1299.9666	-1675.1949	139.85179	1527.6241	-965.77185	155.88533	1511.4618	-905.29694	180.21298	1495.9437	-1035.526	221.58823	236.50746	-2070.9351	236.7494	250.35828	150.42393	373.01144	870.35638	-1008.2852	371.96487	873.46393	-934.92853				367.4679	883.72034	-972.59546	290.83554	521.36993	-688.45911	330.79489	1315.4725	-957.8429	195.78952	1247.1779	-970.33398	358.78241	1039.0469	-964.75055	273.09872	1324.144	-1101.2667	259.71588	1316.3032	-823.0871	322.97699	573.24896	-717.0592	333.87149	509.29962	-710.22211	321.96802	241.43893	-566.01581	362.77173	223.10248	-590.43799	336.43231	179.43906	-549.09778	275.72385	65.623283	-560.09406	332.75568	73.086899	-512.67413	340.83536	30.979078	-559.76025	186.09142	44.610626	-439.67761				206.35959	41.344143	-411.38785	326.97879	570.22662	-1210.2202	295.75003	520.29346	-1241.0382	338.88562	505.83786	-1217.2584	330.47873	271.85724	-1346.1042	338.91168	207.47173	-1359.1091	366.16119	250.39763	-1316.634	329.30847	70.67643	-1408.6022	255.96335	68.925377	-1381.0991	328.55621	28.168102	-1361.7874	251.32695	25.873579	-1537.7755	192.36215	35.968098	-1506.0253	215.16246	33.538937	-1527.318	339.55478	1240.5271	-637.55096	311.26086	1281.2207	-640.09387	321.70126	1285.58	-701.17859	266.26215	1276.6443	-309.25562	296.9512	1298.4917	-1602.0702	355.24783	1275.8528	-1599.0408	350.01437	1282.0221	-1202.9584	356.38541	1272.6606	-1263.9944	366.66071	1235.9178	-1194.6565
